<svg width="20" height="20" viewBox="0 0 20 20" fill="none" xmlns="http://www.w3.org/2000/svg">
<circle cx="10" cy="10" r="10" fill="#38B000"/>
<path d="M13.9999 10.6667H10.6666V14C10.6666 14.3667 10.3666 14.6667 9.99992 14.6667C9.63325 14.6667 9.33325 14.3667 9.33325 14V10.6667H5.99992C5.63325 10.6667 5.33325 10.3667 5.33325 10C5.33325 9.63337 5.63325 9.33337 5.99992 9.33337H9.33325V6.00004C9.33325 5.63337 9.63325 5.33337 9.99992 5.33337C10.3666 5.33337 10.6666 5.63337 10.6666 6.00004V9.33337H13.9999C14.3666 9.33337 14.6666 9.63337 14.6666 10C14.6666 10.3667 14.3666 10.6667 13.9999 10.6667Z" fill="white"/>
</svg>
