<svg xmlns="http://www.w3.org/2000/svg" width="24" height="24" viewBox="0 0 24 24" fill="none">
  <path d="M18.2451 7.99999C19.036 9.13382 19.4998 10.5127 19.4998 12C19.4998 13.4872 19.036 14.8662 18.2451 16M12.1343 5.36567L8.96863 8.53136C8.79568 8.70431 8.7092 8.79079 8.60828 8.85263C8.51881 8.90746 8.42127 8.94786 8.31923 8.97236C8.20414 8.99999 8.08185 8.99999 7.83726 8.99999H6.1C5.53995 8.99999 5.25992 8.99999 5.04601 9.10898C4.85785 9.20485 4.70487 9.35784 4.60899 9.546C4.5 9.75991 4.5 10.0399 4.5 10.6V13.4C4.5 13.96 4.5 14.2401 4.60899 14.454C4.70487 14.6421 4.85785 14.7951 5.04601 14.891C5.25992 15 5.53995 15 6.1 15H7.83726C8.08185 15 8.20414 15 8.31923 15.0276C8.42127 15.0521 8.51881 15.0925 8.60828 15.1473C8.7092 15.2092 8.79568 15.2957 8.96863 15.4686L12.1343 18.6343C12.5627 19.0627 12.7769 19.2769 12.9608 19.2913C13.1203 19.3039 13.2763 19.2393 13.3802 19.1176C13.5 18.9773 13.5 18.6744 13.5 18.0686V5.93136C13.5 5.32554 13.5 5.02264 13.3802 4.88237C13.2763 4.76067 13.1203 4.69608 12.9608 4.70864C12.7769 4.72311 12.5627 4.9373 12.1343 5.36567Z" stroke="black" stroke-width="2" stroke-linecap="round" stroke-linejoin="round"/>
</svg>
