<svg xmlns="http://www.w3.org/2000/svg" width="28" height="28" viewBox="0 0 28 28" fill="none">
  <g clip-path="url(#clip0_906_5848)">
    <path d="M27.9453 18.4588C25.3674 18.4844 22.7894 18.4844 20.1912 18.4844C20.1912 17.722 20.1912 16.9707 20.1912 16.3594C19.9144 16.5912 19.5559 16.86 19.2359 17.1688C18.9397 17.4545 18.689 17.7868 18.4107 18.0918C17.7847 18.7778 17.1381 19.4456 16.5294 20.1465C15.7744 21.0158 15.0472 21.9093 14.3151 22.7983C14.255 22.8713 14.2234 22.9893 14.2228 23.0867C14.2163 24.1073 14.2059 25.1283 14.2237 26.1487C14.2339 26.7334 13.659 27.2878 13.0882 27.2965C11.9434 27.3139 10.9185 26.9831 10.0265 26.284C9.09854 25.5568 8.50199 24.6102 8.25245 23.4427C8.07175 22.5973 8.15184 21.7468 8.16559 20.9008C8.17148 20.5382 8.3681 20.1796 8.47203 19.8174C8.65082 19.1944 8.82489 18.57 9.00338 17.9375C6.90086 17.9375 4.80471 17.9182 2.70914 17.9451C1.53225 17.9602 0.431566 17.1245 0.0739288 16.0658C0.0402927 15.9663 0.0149326 15.8639 -0.0344791 15.7564C-0.0546856 15.3296 -0.0546856 14.9092 -0.0348854 14.4579C0.0528088 14.2672 0.0977554 14.092 0.193022 13.9506C0.450396 13.5688 0.729181 13.2014 1.01274 12.81C0.575724 12.243 0.455952 11.5437 0.551256 10.8062C0.650398 10.0391 1.06212 9.43732 1.63899 8.953C1.21515 8.30782 1.03237 7.62551 1.14967 6.87669C1.26825 6.11979 1.62886 5.50195 2.24685 5.04562C1.73462 4.29287 1.56724 3.48391 1.81141 2.61743C1.97788 2.02671 2.31161 1.52624 2.81101 1.15926C3.2582 0.830647 3.75445 0.603548 4.32322 0.602972C7.28499 0.599977 10.2468 0.599457 13.2085 0.604006C13.6232 0.604645 14.0415 0.610014 14.4517 0.6628C15.0563 0.740604 15.6649 0.825012 16.2539 0.976454C16.9138 1.14616 17.5576 1.38308 18.2014 1.61034C18.8604 1.84294 19.511 2.09927 20.1925 2.35547C20.1925 1.91693 20.1925 1.51063 20.1925 1.09376C22.7895 1.09376 25.3674 1.09376 27.9453 1.09376C27.9453 6.87355 27.9453 12.6533 27.9453 18.4588ZM3.54902 3.90442C3.76453 4.28065 4.09684 4.46758 4.52743 4.49884C4.52743 5.05636 4.52743 5.60813 4.52743 6.11111C4.13652 6.19117 3.75321 6.22774 3.40131 6.35272C2.99385 6.49743 2.83133 6.88647 2.807 7.27863C2.79301 7.5042 2.90607 7.76581 3.03353 7.96549C3.23226 8.27684 3.57987 8.38621 3.91858 8.43595C3.91858 9.01099 3.91858 9.56176 3.91858 10.072C3.55989 10.1192 3.21345 10.1243 2.89291 10.218C2.53986 10.3212 2.30709 10.6191 2.25723 10.9723C2.22063 11.2316 2.25896 11.5394 2.37175 11.7736C2.57404 12.1936 3.00587 12.3145 3.42742 12.3674C3.42742 12.9459 3.42742 13.4968 3.42742 14.0583C3.09136 14.0583 2.7524 13.9876 2.45946 14.0737C1.92454 14.2308 1.56274 14.627 1.64105 15.3687C1.68843 15.8173 2.20536 16.2418 2.70448 16.2419C5.45618 16.2425 8.20788 16.2422 10.9596 16.2422C11.058 16.2422 11.1565 16.2422 11.2746 16.2422C10.9282 17.4269 10.5995 18.5908 10.2459 19.7471C9.97323 20.6388 9.73671 21.5333 9.84829 22.4758C9.89048 22.8323 9.94602 23.1957 10.0619 23.5331C10.3049 24.2403 10.7877 24.7744 11.4178 25.1642C11.748 25.3684 12.1133 25.5044 12.5234 25.5399C12.5234 24.5946 12.5183 23.684 12.5283 22.7736C12.53 22.612 12.5487 22.4175 12.6378 22.2953C13.2022 21.5224 13.7678 20.7485 14.3738 20.0083C14.9366 19.3209 15.5467 18.6719 16.1427 18.012C16.7345 17.3567 17.3301 16.7047 17.9322 16.0589C18.5862 15.3576 19.248 14.6635 19.91 13.9698C20.0961 13.7748 20.1877 13.5676 20.1866 13.2821C20.1753 10.3755 20.1742 7.46887 20.1877 4.56233C20.1892 4.25252 20.1265 4.08816 19.8022 4.03862C19.6248 4.01153 19.4607 3.90497 19.2872 3.84361C18.1071 3.42607 16.9334 2.98853 15.7426 2.60369C15.0388 2.37623 14.2998 2.29576 13.5556 2.29618C10.5579 2.29789 7.56017 2.29689 4.56246 2.29689C3.69939 2.29689 3.18347 3.07644 3.54902 3.90442ZM26.3047 13.8633C26.3047 10.176 26.3047 6.48867 26.3047 2.80471C24.8114 2.80471 23.3492 2.80471 21.8905 2.80471C21.8905 7.47249 21.8905 12.1246 21.8905 16.7734C23.3683 16.7734 24.8305 16.7734 26.3047 16.7734C26.3047 15.8112 26.3047 14.8646 26.3047 13.8633Z" fill="#1C1C1C"/>
  </g>
  <defs>
    <clipPath id="clip0_906_5848">
      <rect width="28" height="28" fill="white" transform="matrix(-1 0 0 -1 28 28)"/>
    </clipPath>
  </defs>
</svg>
