<svg xmlns="http://www.w3.org/2000/svg" width="24" height="24" viewBox="0 0 24 24" fill="none">
  <g clip-path="url(#clip0_375_12070)">
    <path d="M12.4115 10.8961L8.00733 14.1906M8.11415 14.4747L10.4222 21.4583C10.6035 22.007 10.6942 22.2813 10.848 22.377C10.9815 22.46 11.1463 22.4755 11.293 22.4186C11.4618 22.3531 11.6017 22.1003 11.8817 21.5948L20.759 5.56302C21.0322 5.06961 21.1688 4.82291 21.1362 4.64656C21.1078 4.49336 21.0097 4.36214 20.8707 4.29166C20.7108 4.21054 20.4355 4.27191 19.885 4.39466L1.9925 8.38423C1.43022 8.50961 1.14909 8.57229 1.03859 8.7155C0.942626 8.83987 0.910691 9.00211 0.95236 9.15357C1.00034 9.32797 1.23675 9.49253 1.70957 9.82165L7.8116 14.0691C7.8928 14.1257 7.93341 14.1539 7.9671 14.1887C7.99699 14.2196 8.02279 14.2541 8.04384 14.2916C8.06757 14.3338 8.0831 14.3807 8.11415 14.4747Z" stroke="#1C1C1C" stroke-width="2" stroke-linecap="round" stroke-linejoin="round"/>
  </g>
  <defs>
    <clipPath id="clip0_375_12070">
      <rect width="24" height="24" fill="white"/>
    </clipPath>
  </defs>
</svg>
