<svg width="342" height="261" viewBox="0 0 342 261" fill="none" xmlns="http://www.w3.org/2000/svg">
<circle cx="294" cy="48" r="48" fill="#F9B021"/>
<path d="M243.313 27H59C26.4152 27 0 53.4152 0 86V202C0 234.585 26.4152 261 59 261H257C289.585 261 316 234.585 316 202V99.6872C309.879 102.617 303.125 104.438 296 104.889V202C296 223.539 278.539 241 257 241H59C37.4609 241 20 223.539 20 202V86C20 64.4609 37.4609 47 59 47H238.111C238.562 39.8747 240.383 33.1213 243.313 27Z" fill="black"/>
<path d="M266.454 99.9168L237.581 132.654L237.547 132.693C223.359 149.12 214.339 149.539 210.108 148.402C204.774 146.97 199.988 141.427 197.434 135.353L197.355 135.166L197.269 134.983C190.51 120.574 183.187 110.484 175.015 104.673C166.266 98.4516 156.928 97.4574 148.355 100.666C140.486 103.611 134.243 109.712 129.62 115.777C124.937 121.92 121.224 128.938 118.624 135.229C114.642 143.828 110.655 147.773 107.641 149.512C104.851 151.121 101.966 151.385 98.608 150.504C90.9676 148.498 82.4953 140.865 76.9334 133.304L76.6981 132.984L22.5601 70.4544L7.43986 83.5456L61.0674 145.486C67.6411 154.32 79.4431 166.15 93.5298 169.848C101.123 171.842 109.568 171.49 117.635 166.836C125.459 162.322 131.823 154.4 136.877 143.407L136.964 143.218L137.043 143.026C139.139 137.919 142.076 132.427 145.526 127.902C149.085 123.232 152.527 120.459 155.365 119.397C157.501 118.598 159.895 118.462 163.425 120.972C167.513 123.879 172.983 130.348 179.083 143.308C182.783 151.988 191.117 164.01 204.919 167.718C219.921 171.747 236.233 164.795 252.648 145.806L287.862 105.88C280.183 105.374 272.938 103.278 266.454 99.9168Z" fill="black"/>
</svg>
