<svg xmlns="http://www.w3.org/2000/svg" width="18" height="20" viewBox="0 0 18 20" fill="none">
  <path fill-rule="evenodd" clip-rule="evenodd" d="M12.6579 0C12.8324 1.21479 12.35 2.40488 11.7136 3.24688C11.0328 4.15003 9.8593 4.84856 8.72229 4.8121C8.51474 3.64906 9.04618 2.45074 9.6928 1.64519C10.4021 0.756154 11.6178 0.0740866 12.6579 0ZM16.0735 17.0987C16.6597 16.1779 16.8786 15.7134 17.3337 14.6738C14.0241 13.3838 13.4938 8.56112 16.7691 6.71013C15.7701 5.42596 14.3663 4.68156 13.0411 4.68156C12.0862 4.68156 11.432 4.93697 10.8373 5.16916C10.3416 5.36266 9.88729 5.54003 9.3347 5.54003C8.73755 5.54003 8.20874 5.34569 7.65503 5.14219C7.04659 4.91858 6.40808 4.68392 5.61577 4.68392C4.12865 4.68392 2.54574 5.61529 1.54216 7.20757C0.131452 9.45016 0.372082 13.666 2.65978 17.2575C3.47747 18.5428 4.57 19.9869 5.99895 19.9999C6.59188 20.0059 6.98643 19.8245 7.4134 19.6282C7.9021 19.4035 8.43327 19.1593 9.35295 19.1543C10.2781 19.1486 10.8008 19.3958 11.2831 19.6238C11.6991 19.8205 12.0849 20.0029 12.6727 19.9963C14.1028 19.9846 15.2558 18.3841 16.0735 17.0987Z" fill="#1C1C1C"/>
</svg>