<svg xmlns="http://www.w3.org/2000/svg" width="28" height="28" viewBox="0 0 28 28" fill="none">
  <path d="M4.4475 15.2433L3.86859 15.7202L4.4475 15.2433ZM23.5529 12.7567L22.974 13.2335H22.974L23.5529 12.7567ZM4.4475 12.7567L5.02642 13.2335L4.4475 12.7567ZM23.5529 15.2433L22.974 14.7665L22.974 14.7665L23.5529 15.2433ZM21.6328 16.2556C21.342 16.5506 21.3455 17.0255 21.6405 17.3162C21.9355 17.607 22.4104 17.6035 22.7011 17.3085L21.6328 16.2556ZM12.7169 6.35183C12.3078 6.41628 12.0283 6.80022 12.0928 7.20939C12.1572 7.61856 12.5411 7.89801 12.9503 7.83356L12.7169 6.35183ZM14.0002 20.25C12.0984 20.25 10.2774 19.4074 8.69252 18.2672C7.11358 17.1312 5.83244 15.7451 5.02642 14.7665L3.86859 15.7202C4.71934 16.7531 6.0937 18.2453 7.8165 19.4848C9.53338 20.72 11.6603 21.75 14.0002 21.75V20.25ZM14.0002 7.75C15.902 7.75 17.723 8.59259 19.3079 9.73283C20.8868 10.8688 22.168 12.2549 22.974 13.2335L24.1318 12.2798C23.2811 11.2469 21.9067 9.75469 20.1839 8.51521C18.467 7.27999 16.3401 6.25 14.0002 6.25V7.75ZM5.02642 14.7665C4.652 14.3119 4.652 13.6881 5.02642 13.2335L3.86859 12.2798C3.03795 13.2883 3.03794 14.7117 3.86859 15.7202L5.02642 14.7665ZM24.1318 15.7202C24.9625 14.7117 24.9625 13.2883 24.1318 12.2798L22.974 13.2335C23.3484 13.6881 23.3484 14.3119 22.974 14.7665L24.1318 15.7202ZM22.974 14.7665C22.6172 15.1996 22.165 15.7156 21.6328 16.2556L22.7011 17.3085C23.2697 16.7316 23.7518 16.1816 24.1318 15.7202L22.974 14.7665ZM18.6545 18.7107C17.2267 19.6217 15.6429 20.25 14.0002 20.25V21.75C16.0249 21.75 17.8889 20.9785 19.4614 19.9752L18.6545 18.7107ZM5.02642 13.2335C5.88368 12.1927 7.27607 10.6938 8.9908 9.52376L8.14534 8.28473C6.26735 9.56618 4.77173 11.1833 3.86859 12.2798L5.02642 13.2335ZM12.9503 7.83356C13.2968 7.77898 13.647 7.75 14.0002 7.75V6.25C13.5647 6.25 13.1364 6.28575 12.7169 6.35183L12.9503 7.83356Z" fill="#707071"/>
  <path d="M3.5 3.5L24.5 24.5" stroke="#707071" stroke-width="1.5" stroke-linecap="round" stroke-linejoin="round"/>
  <path d="M13.094 17.3807C12.5006 17.2217 11.9594 16.9093 11.525 16.4749C11.0906 16.0404 10.7782 15.4993 10.6191 14.9059" stroke="#707071" stroke-linecap="round"/>
</svg>
