<svg xmlns="http://www.w3.org/2000/svg" width="26" height="26" viewBox="0 0 26 26" fill="none">
  <path d="M5.41043 4.23181C5.13321 4.23181 4.84331 4.32498 4.63173 4.53623C4.20869 4.95982 4.20869 5.67047 4.63173 6.09405L11.4365 12.8985L4.63173 19.7029C4.20869 20.1265 4.20869 20.8371 4.63173 21.2607C5.05488 21.6832 5.76598 21.6832 6.18913 21.2607L12.9938 14.4563L19.7984 21.2607C20.2216 21.6832 20.9327 21.6832 21.3558 21.2607C21.7788 20.8371 21.7788 20.1265 21.3558 19.7029L14.5511 12.8985L21.3558 6.09405C21.7788 5.67047 21.7788 4.95982 21.3558 4.53623C21.1442 4.32498 20.8542 4.23181 20.5771 4.23181C20.2999 4.23181 20.0101 4.32498 19.7984 4.53623L12.9938 11.3406L6.18913 4.53623C5.97756 4.32498 5.68766 4.23181 5.41043 4.23181Z" fill="#1C1C1C"/>
</svg>