<svg xmlns="http://www.w3.org/2000/svg" width="26" height="26" viewBox="0 0 26 26" fill="none">
  <rect width="26" height="26" transform="matrix(0 -1 1 0 0 26)" fill="white"/>
  <path d="M14.0829 20.3572L14.0829 8.25636L19.3696 13.543C19.7921 13.9655 20.4854 13.9655 20.9079 13.543C21.3304 13.1205 21.3304 12.438 20.9079 12.0155L13.7688 4.87636C13.3463 4.45386 12.6638 4.45386 12.2413 4.87636L5.09127 12.0047C4.88842 12.2071 4.77441 12.4819 4.77441 12.7684C4.77441 13.055 4.88842 13.3298 5.09127 13.5322C5.51377 13.9547 6.19627 13.9547 6.61877 13.5322L11.9163 8.25636V20.3572C11.9163 20.953 12.4038 21.4405 12.9996 21.4405C13.5954 21.4405 14.0829 20.953 14.0829 20.3572Z" fill="#1A73E8"/>
</svg>
