<svg xmlns="http://www.w3.org/2000/svg" width="24" height="24" viewBox="0 0 24 24" fill="none">
  <g clip-path="url(#clip0_375_11108)">
    <path d="M12.4114 10.8961L8.00727 14.1906M8.11408 14.4747L10.4221 21.4583C10.6035 22.007 10.6941 22.2813 10.8479 22.377C10.9814 22.46 11.1463 22.4755 11.2929 22.4186C11.4617 22.3531 11.6017 22.1003 11.8816 21.5948L20.7589 5.56302C21.0322 5.06961 21.1688 4.82291 21.1361 4.64656C21.1078 4.49336 21.0096 4.36214 20.8706 4.29166C20.7107 4.21054 20.4355 4.27191 19.885 4.39466L1.99244 8.38423C1.43016 8.50961 1.14903 8.57229 1.03853 8.7155C0.942564 8.83987 0.91063 9.00211 0.952299 9.15357C1.00028 9.32797 1.23669 9.49253 1.7095 9.82165L7.81153 14.0691C7.89274 14.1257 7.93335 14.1539 7.96704 14.1887C7.99693 14.2196 8.02273 14.2541 8.04378 14.2916C8.06751 14.3338 8.08304 14.3807 8.11408 14.4747Z" stroke="#1C1C1C" stroke-width="2" stroke-linecap="round" stroke-linejoin="round"/>
  </g>
  <defs>
    <clipPath id="clip0_375_11108">
      <rect width="24" height="24" fill="white"/>
    </clipPath>
  </defs>
</svg>