<svg xmlns="http://www.w3.org/2000/svg" width="16" height="16" viewBox="0 0 16 16" fill="none">
  <path d="M3.32972 2.60425C3.15912 2.60425 2.98072 2.66159 2.85052 2.79159C2.59019 3.05225 2.59019 3.48958 2.85052 3.75024L7.03806 7.93758L2.85052 12.1249C2.59019 12.3856 2.59019 12.8229 2.85052 13.0836C3.11092 13.3436 3.54852 13.3436 3.80892 13.0836L7.99639 8.89625L12.1839 13.0836C12.4443 13.3436 12.8819 13.3436 13.1423 13.0836C13.4026 12.8229 13.4026 12.3856 13.1423 12.1249L8.95472 7.93758L13.1423 3.75024C13.4026 3.48958 13.4026 3.05225 13.1423 2.79159C13.0121 2.66159 12.8336 2.60425 12.6631 2.60425C12.4925 2.60425 12.3141 2.66159 12.1839 2.79159L7.99639 6.97891L3.80892 2.79159C3.67872 2.66159 3.50032 2.60425 3.32972 2.60425Z" fill="#707071"/>
</svg>