<svg xmlns="http://www.w3.org/2000/svg" width="26" height="26" viewBox="0 0 26 26" fill="none">
  <path d="M19.5001 14.0833H14.0834V19.5C14.0834 20.0958 13.5959 20.5833 13.0001 20.5833C12.4042 20.5833 11.9167 20.0958 11.9167 19.5V14.0833H6.50008C5.90425 14.0833 5.41675 13.5958 5.41675 13C5.41675 12.4041 5.90425 11.9166 6.50008 11.9166H11.9167V6.49996C11.9167 5.90413 12.4042 5.41663 13.0001 5.41663C13.5959 5.41663 14.0834 5.90413 14.0834 6.49996V11.9166H19.5001C20.0959 11.9166 20.5834 12.4041 20.5834 13C20.5834 13.5958 20.0959 14.0833 19.5001 14.0833Z" fill="#1C1C1C"/>
</svg>
